<svg width="32px" height="32px" viewBox="0 0 32 32" fill="none" xmlns="http://www.w3.org/2000/svg">
<path d="M11.251 27.2558C9.80533 25.9343 9.38329 23.1577 9.98561 21.1461C11.0299 22.4144 12.477 22.8161 13.9758 23.0429C16.2896 23.3929 18.5621 23.262 20.7115 22.2044C20.9574 22.0833 21.1847 21.9223 21.4534 21.7592C21.6551 22.3444 21.7075 22.9351 21.6371 23.5363C21.4658 25.0006 20.7371 26.1317 19.5781 26.9891C19.1146 27.3321 18.6242 27.6386 18.1456 27.962C16.6751 28.9559 16.2772 30.1213 16.8298 31.8164C16.8429 31.858 16.8547 31.8992 16.8844 32C16.1336 31.6639 15.5851 31.1746 15.1672 30.5313C14.7259 29.8525 14.5159 29.1015 14.5049 28.2889C14.4993 27.8934 14.4993 27.4944 14.4462 27.1046C14.3163 26.1541 13.8701 25.7285 13.0295 25.704C12.1668 25.6788 11.4844 26.2122 11.3035 27.0521C11.2897 27.1165 11.2696 27.1802 11.2496 27.2551L11.251 27.2558Z" fill="#17191E"/>
<path d="M3 20.8109C3 20.8109 7.28079 18.7256 11.5735 18.7256L14.8101 8.7089C14.9313 8.22451 15.2851 7.8953 15.6845 7.8953C16.084 7.8953 16.4378 8.22451 16.5589 8.7089L19.7955 18.7256C24.8797 18.7256 28.3691 20.8109 28.3691 20.8109C28.3691 20.8109 21.0978 1.00257 21.0836 0.962823C20.8749 0.377181 20.5226 0 20.0476 0H11.3222C10.8472 0 10.5091 0.377181 10.2862 0.962823C10.2705 1.00182 3 20.8109 3 20.8109Z" fill="#17191E"/>
</svg>
